<svg width="32" height="31" viewBox="0 0 32 31" fill="none" xmlns="http://www.w3.org/2000/svg">
<path d="M22 10.0596C24.3869 10.0596 26.6761 11.0078 28.364 12.6956C30.0518 14.3834 31 16.6726 31 19.0596V29.5596H25V19.0596C25 18.2639 24.6839 17.5009 24.1213 16.9383C23.5587 16.3756 22.7956 16.0596 22 16.0596C21.2044 16.0596 20.4413 16.3756 19.8787 16.9383C19.3161 17.5009 19 18.2639 19 19.0596V29.5596H13V19.0596C13 16.6726 13.9482 14.3834 15.636 12.6956C17.3239 11.0078 19.6131 10.0596 22 10.0596Z" stroke="white" stroke-width="2" stroke-linecap="round" stroke-linejoin="round"/>
<path d="M7 11.5596H1V29.5596H7V11.5596Z" stroke="white" stroke-width="2" stroke-linecap="round" stroke-linejoin="round"/>
<path d="M4 7.05957C5.65685 7.05957 7 5.71642 7 4.05957C7 2.40272 5.65685 1.05957 4 1.05957C2.34315 1.05957 1 2.40272 1 4.05957C1 5.71642 2.34315 7.05957 4 7.05957Z" stroke="white" stroke-width="2" stroke-linecap="round" stroke-linejoin="round"/>
</svg>
