<svg width="32" height="33" viewBox="0 0 32 33" fill="none" xmlns="http://www.w3.org/2000/svg">
<path d="M30.9991 23.5054V28.0305C31.0008 28.4506 30.9147 28.8664 30.7464 29.2513C30.5781 29.6362 30.3313 29.9818 30.0218 30.2658C29.7122 30.5498 29.3467 30.766 28.9488 30.9006C28.5508 31.0351 28.1292 31.0851 27.7108 31.0473C23.0692 30.543 18.6106 28.9569 14.6934 26.4165C11.0488 24.1007 7.95889 21.0107 5.64301 17.3662C3.09379 13.4311 1.50736 8.95087 1.01224 4.28844C0.974549 3.87132 1.02412 3.45092 1.1578 3.05401C1.29149 2.6571 1.50635 2.29237 1.78871 1.98305C2.07108 1.67372 2.41475 1.42658 2.79786 1.25736C3.18097 1.08814 3.59512 1.00054 4.01394 1.00015H8.53912C9.27115 0.992941 9.98083 1.25217 10.5359 1.7295C11.0909 2.20684 11.4534 2.86972 11.5559 3.59458C11.7469 5.04274 12.1011 6.46464 12.6118 7.83316C12.8147 8.37305 12.8586 8.9598 12.7383 9.52389C12.618 10.088 12.3386 10.6058 11.933 11.0159L10.0173 12.9315C12.1646 16.7079 15.2914 19.8346 19.0677 21.9819L20.9833 20.0662C21.3935 19.6607 21.9112 19.3812 22.4753 19.2609C23.0394 19.1406 23.6262 19.1845 24.1661 19.3874C25.5346 19.8981 26.9565 20.2523 28.4046 20.4433C29.1374 20.5467 29.8065 20.9158 30.2849 21.4803C30.7633 22.0449 31.0174 22.7656 30.9991 23.5054Z" stroke="white" stroke-width="2" stroke-linecap="round" stroke-linejoin="round"/>
</svg>
